<?xml version="1.0" encoding="iso-8859-1"?>
<!-- Generator: Adobe Illustrator 15.1.0, SVG Export Plug-In . SVG Version: 6.00 Build 0)  -->
<!DOCTYPE svg PUBLIC "-//W3C//DTD SVG 1.1//EN" "http://www.w3.org/Graphics/SVG/1.1/DTD/svg11.dtd">
<svg version="1.1" xmlns="http://www.w3.org/2000/svg" xmlns:xlink="http://www.w3.org/1999/xlink" x="0px" y="0px" width="1152px"
	 height="256px" viewBox="0 0 1152 256" style="enable-background:new 0 0 1152 256;" xml:space="preserve">
<g id="monitoring_analyse_consulting_1_" style="enable-background:new    ;">
	<g id="monitoring_analyse_consulting">
		<g>
			<path style="fill-rule:evenodd;clip-rule:evenodd;fill:#0B0B0B;" d="M174.92,179.907c-1.5,0-2.867,0.422-4.102,1.265
				c-1.235,0.844-2.328,2.108-3.279,3.795c-0.491-1.65-1.314-2.906-2.471-3.768c-1.155-0.861-2.57-1.292-4.244-1.292
				c-1.492,0-2.866,0.408-4.122,1.224c-1.257,0.815-2.284,1.976-3.085,3.479v-4.047h-3.609v29.039h4.02V194.52
				c0-3.941,0.533-6.656,1.6-8.144s2.52-2.23,4.361-2.23c1.294,0,2.311,0.493,3.049,1.479c0.738,0.984,1.107,2.683,1.107,5.091
				v18.888h4.02v-16.89c0-2.956,0.55-5.123,1.649-6.501s2.521-2.066,4.262-2.066c0.843,0,1.604,0.237,2.282,0.712
				c0.678,0.475,1.168,1.146,1.47,2.012c0.303,0.867,0.454,2.34,0.454,4.421v18.313h4.02v-19.934c0-3.409-0.659-5.888-1.976-7.438
				C179.008,180.682,177.206,179.907,174.92,179.907z M206.819,179.907c-3.227,0-5.893,1.276-7.998,3.828s-3.158,6.335-3.158,11.348
				c0,4.995,1.062,8.772,3.186,11.334c2.123,2.562,4.78,3.842,7.971,3.842c3.244,0,5.915-1.276,8.012-3.828
				c2.096-2.552,3.145-6.435,3.145-11.648c0-4.813-1.066-8.495-3.199-11.047S209.991,179.907,206.819,179.907z M211.81,203.433
				c-1.358,1.853-2.985,2.779-4.881,2.779c-2.023,0-3.719-0.917-5.086-2.752c-1.367-1.834-2.051-4.631-2.051-8.391
				c0-3.724,0.674-6.507,2.023-8.351c1.349-1.843,2.98-2.765,4.895-2.765c2.023,0,3.719,0.917,5.086,2.751
				c1.367,1.835,2.051,4.623,2.051,8.364C213.847,198.793,213.167,201.58,211.81,203.433z M249.047,182.628
				c-0.665-0.812-1.538-1.468-2.621-1.969s-2.261-0.752-3.535-0.752c-1.638,0-3.089,0.395-4.354,1.183
				c-1.265,0.789-2.334,1.98-3.207,3.575v-4.102h-3.637v29.039h4.02v-15.877c0-3.503,0.574-5.976,1.723-7.418
				c1.148-1.441,2.688-2.162,4.621-2.162c1.021,0,1.918,0.269,2.693,0.808c0.774,0.538,1.344,1.3,1.709,2.285
				c0.364,0.985,0.547,2.546,0.547,4.682v17.683h4.02v-17.855c0-2.68-0.164-4.667-0.491-5.961
				C250.206,184.492,249.71,183.439,249.047,182.628z M266.192,175.177h4.02v-5.66h-4.02V175.177z M266.192,209.603h4.02v-29.039
				h-4.02V209.603z M292.543,205.392c-0.948,0-1.596-0.328-1.941-0.984c-0.237-0.456-0.355-1.468-0.355-3.035v-16.98h4.074v-3.828
				h-4.074v-10.145l-4.02,2.953v7.191h-2.953v3.828h2.953v16.707c0,2.88,0.159,4.804,0.479,5.77
				c0.318,0.966,0.907,1.728,1.764,2.283s1.986,0.834,3.391,0.834c0.893,0,1.896-0.146,3.008-0.438l-0.547-4.348
				C293.591,205.328,292.998,205.392,292.543,205.392z M316.706,179.907c-3.227,0-5.893,1.276-7.998,3.828
				s-3.158,6.335-3.158,11.348c0,4.995,1.062,8.772,3.186,11.334s4.78,3.842,7.971,3.842c3.245,0,5.915-1.276,8.012-3.828
				s3.145-6.435,3.145-11.648c0-4.813-1.066-8.495-3.199-11.047S319.878,179.907,316.706,179.907z M321.696,203.433
				c-1.358,1.853-2.985,2.779-4.881,2.779c-2.023,0-3.719-0.917-5.086-2.752c-1.367-1.834-2.051-4.631-2.051-8.391
				c0-3.724,0.675-6.507,2.023-8.351c1.349-1.843,2.98-2.765,4.895-2.765c2.023,0,3.719,0.917,5.086,2.751
				c1.367,1.835,2.051,4.623,2.051,8.364C323.733,198.793,323.055,201.58,321.696,203.433z M347.773,180.905
				c-0.774,0.665-1.627,2.019-2.557,4.061v-4.402h-3.637v29.039h4.02v-15.203c0-2.114,0.255-4.11,0.766-5.988
				c0.292-1.075,0.793-1.914,1.504-2.516s1.495-0.902,2.352-0.902c0.948,0,1.923,0.355,2.926,1.066l1.367-4.566
				c-1.403-1.058-2.78-1.586-4.129-1.586C349.419,179.907,348.548,180.24,347.773,180.905z M365.825,175.177h4.02v-5.66h-4.02
				V175.177z M365.825,209.603h4.02v-29.039h-4.02V209.603z M402.338,182.628c-0.664-0.812-1.538-1.468-2.621-1.969
				c-1.082-0.501-2.261-0.752-3.534-0.752c-1.639,0-3.089,0.395-4.354,1.183c-1.265,0.789-2.334,1.98-3.208,3.575v-4.102h-3.637
				v29.039h4.02v-15.877c0-3.503,0.574-5.976,1.723-7.418c1.148-1.441,2.688-2.162,4.621-2.162c1.021,0,1.919,0.269,2.693,0.808
				c0.774,0.538,1.345,1.3,1.709,2.285s0.547,2.546,0.547,4.682v17.683h4.02v-17.855c0-2.68-0.164-4.667-0.491-5.961
				S403.002,183.439,402.338,182.628z M435.151,184.036c-0.894-1.376-1.918-2.408-3.076-3.097c-1.157-0.688-2.438-1.032-3.842-1.032
				c-1.914,0-3.642,0.547-5.182,1.641s-2.784,2.808-3.732,5.141s-1.422,5.059-1.422,8.176c0,4.648,1.076,8.358,3.227,11.129
				c1.878,2.406,4.238,3.609,7.082,3.609c1.331,0,2.543-0.316,3.637-0.951c1.094-0.633,2.078-1.575,2.953-2.824
				c0,3.282-0.118,5.433-0.355,6.454c-0.383,1.678-1.099,2.939-2.146,3.788c-1.048,0.847-2.456,1.271-4.225,1.271
				c-1.622,0-2.89-0.381-3.801-1.142c-0.911-0.762-1.458-1.921-1.641-3.479l-3.938-0.711c-0.055,2.935,0.747,5.231,2.406,6.891
				c1.659,1.658,4.029,2.488,7.109,2.488c2.334,0,4.329-0.552,5.988-1.654c1.659-1.104,2.854-2.607,3.582-4.512
				c0.729-1.905,1.094-5.091,1.094-9.557v-25.102h-3.719V184.036z M433.206,202.979c-1.279,1.718-2.831,2.577-4.658,2.577
				c-1.826,0-3.37-0.877-4.631-2.632c-1.26-1.754-1.891-4.541-1.891-8.361c0-3.508,0.635-6.153,1.904-7.936
				c1.271-1.782,2.745-2.673,4.426-2.673c1.882,0,3.479,0.891,4.795,2.673s1.973,4.5,1.973,8.155
				C435.124,198.528,434.484,201.261,433.206,202.979z M494.962,197.435v-6.563c0-2.661-0.187-4.685-0.561-6.07
				c-0.373-1.386-1.271-2.548-2.693-3.486s-3.381-1.408-5.879-1.408c-3.208,0-5.674,0.711-7.396,2.133s-2.866,3.691-3.432,6.809
				l3.965,0.656c0.438-2.144,1.121-3.604,2.051-4.383s2.334-1.168,4.211-1.168c2.078,0,3.619,0.583,4.621,1.75
				c0.711,0.802,1.066,2.196,1.066,4.184l-0.027,1.258c-1.531,0.667-3.938,1.241-7.219,1.723c-2.442,0.347-4.266,0.884-5.469,1.613
				s-2.15,1.741-2.844,3.035c-0.692,1.294-1.039,2.78-1.039,4.457c0,2.534,0.738,4.548,2.215,6.043s3.455,2.242,5.934,2.242
				c1.568,0,3.081-0.356,4.539-1.066c1.459-0.711,2.862-1.769,4.211-3.173c0.128,1.387,0.401,2.58,0.82,3.583h4.211
				c-0.51-1.13-0.852-2.292-1.025-3.486C495.049,204.922,494.962,202.028,494.962,197.435z M490.888,196.833
				c0,2.388-0.291,4.206-0.875,5.455c-0.583,1.249-1.463,2.247-2.639,2.994s-2.483,1.121-3.924,1.121
				c-1.513,0-2.697-0.415-3.555-1.244c-0.856-0.829-1.285-1.937-1.285-3.322c0-0.894,0.188-1.682,0.561-2.365
				c0.374-0.684,0.898-1.212,1.572-1.586c0.675-0.374,1.859-0.706,3.555-0.998c2.917-0.511,5.113-1.13,6.59-1.859V196.833z
				 M527.564,182.628c-0.664-0.812-1.538-1.468-2.621-1.969c-1.082-0.501-2.261-0.752-3.534-0.752c-1.638,0-3.089,0.395-4.354,1.183
				c-1.265,0.789-2.334,1.98-3.208,3.575v-4.102h-3.637v29.039h4.02v-15.877c0-3.503,0.574-5.976,1.723-7.418
				c1.148-1.441,2.689-2.162,4.621-2.162c1.021,0,1.919,0.269,2.693,0.808c0.775,0.538,1.345,1.3,1.709,2.285
				c0.365,0.985,0.547,2.546,0.547,4.682v17.683h4.02v-17.855c0-2.68-0.164-4.667-0.491-5.961S528.229,183.439,527.564,182.628z
				 M563.961,197.435v-6.563c0-2.661-0.188-4.685-0.562-6.07c-0.373-1.386-1.271-2.548-2.693-3.486
				c-1.421-0.938-3.381-1.408-5.878-1.408c-3.209,0-5.674,0.711-7.396,2.133s-2.867,3.691-3.432,6.809l3.965,0.656
				c0.437-2.144,1.121-3.604,2.051-4.383c0.929-0.778,2.333-1.168,4.211-1.168c2.078,0,3.618,0.583,4.62,1.75
				c0.711,0.802,1.067,2.196,1.067,4.184l-0.027,1.258c-1.532,0.667-3.938,1.241-7.22,1.723c-2.442,0.347-4.266,0.884-5.468,1.613
				c-1.203,0.729-2.151,1.741-2.844,3.035c-0.693,1.294-1.04,2.78-1.04,4.457c0,2.534,0.738,4.548,2.215,6.043
				s3.455,2.242,5.934,2.242c1.568,0,3.081-0.356,4.539-1.066c1.459-0.711,2.862-1.769,4.211-3.173
				c0.128,1.387,0.401,2.58,0.82,3.583h4.211c-0.51-1.13-0.852-2.292-1.024-3.486C564.047,204.922,563.961,202.028,563.961,197.435z
				 M559.887,196.833c0,2.388-0.292,4.206-0.875,5.455c-0.584,1.249-1.463,2.247-2.64,2.994c-1.175,0.747-2.483,1.121-3.924,1.121
				c-1.513,0-2.697-0.415-3.555-1.244c-0.856-0.829-1.284-1.937-1.284-3.322c0-0.894,0.187-1.682,0.561-2.365
				c0.373-0.684,0.897-1.212,1.571-1.586c0.675-0.374,1.859-0.706,3.555-0.998c2.917-0.511,5.114-1.13,6.591-1.859V196.833z
				 M579.073,209.603h4.019v-40.086h-4.019V209.603z M608.814,197.479c-0.639,2.15-1.186,4.354-1.641,6.614
				c-0.529-2.387-1.104-4.628-1.723-6.723l-4.977-16.808h-4.348l9.058,29.082c-0.932,2.96-1.461,4.567-1.588,4.823
				c-0.365,0.729-0.826,1.268-1.382,1.614c-0.558,0.346-1.265,0.52-2.121,0.52c-0.639,0-1.405-0.146-2.299-0.438l0.438,4.621
				c0.967,0.4,1.834,0.602,2.602,0.602c1.096,0,2.077-0.283,2.944-0.848c0.867-0.565,1.643-1.49,2.327-2.775s1.621-3.842,2.808-7.67
				l9.034-29.531H613.9L608.814,197.479z M645.402,194.495c-0.98-0.63-3.141-1.475-6.481-2.535c-2.429-0.799-3.89-1.38-4.383-1.742
				c-0.822-0.617-1.232-1.462-1.232-2.533c0-1.089,0.428-1.983,1.285-2.683c0.856-0.698,2.16-1.048,3.91-1.048
				c3.08,0,4.803,1.586,5.168,4.758l3.938-0.656c-0.273-2.005-0.766-3.546-1.477-4.621s-1.736-1.933-3.076-2.57
				s-2.895-0.957-4.662-0.957c-2.808,0-5.004,0.774-6.59,2.324s-2.379,3.563-2.379,6.043c0,1.44,0.291,2.726,0.875,3.855
				c0.583,1.13,1.403,2.032,2.461,2.707c1.057,0.675,3.153,1.495,6.289,2.461c2.169,0.656,3.536,1.203,4.102,1.641
				c0.82,0.638,1.23,1.531,1.23,2.68c0,1.331-0.478,2.429-1.433,3.295s-2.306,1.299-4.051,1.299c-1.746,0-3.146-0.499-4.201-1.497
				s-1.7-2.522-1.937-4.573l-4.02,0.766c0.911,6.234,4.22,9.352,9.926,9.352c3.044,0,5.445-0.858,7.205-2.575
				c1.759-1.716,2.639-3.962,2.639-6.738c0-1.497-0.273-2.789-0.817-3.875C647.146,195.983,646.383,195.125,645.402,194.495z
				 M671.988,179.907c-3.227,0-5.893,1.317-7.998,3.951s-3.158,6.458-3.158,11.471c0,4.831,1.043,8.526,3.131,11.088
				c2.087,2.562,4.816,3.842,8.189,3.842c2.68,0,4.926-0.788,6.74-2.365c1.813-1.577,3.066-3.915,3.76-7.014l-4.156-0.629
				c-1.186,3.974-3.291,5.961-6.316,5.961c-1.933,0-3.573-0.829-4.922-2.488c-1.35-1.659-2.105-4.12-2.27-7.383h17.773l0.027-1.313
				c0-4.903-1.03-8.649-3.09-11.238C677.639,181.201,675.068,179.907,671.988,179.907z M665.234,192.294
				c0.127-2.552,0.829-4.58,2.105-6.084c1.275-1.504,2.816-2.256,4.621-2.256c2.005,0,3.654,0.902,4.949,2.707
				c0.893,1.239,1.431,3.117,1.613,5.633H665.234z M731.977,204.448c-1.085,1.176-2.393,1.764-3.924,1.764
				c-1.951,0-3.551-0.884-4.799-2.652c-1.249-1.769-1.873-4.63-1.873-8.586c0-3.828,0.651-6.622,1.955-8.381
				c1.303-1.759,2.948-2.639,4.936-2.639c1.33,0,2.47,0.485,3.418,1.456c0.947,0.971,1.613,2.436,1.996,4.396l3.91-0.711
				c-0.475-3.063-1.555-5.359-3.24-6.891c-1.687-1.531-3.76-2.297-6.221-2.297c-3.19,0-5.802,1.263-7.834,3.787
				c-2.033,2.524-3.049,6.312-3.049,11.361c0,5.013,1.007,8.8,3.021,11.361c2.014,2.562,4.58,3.842,7.697,3.842
				c2.57,0,4.771-0.911,6.604-2.734s2.976-4.466,3.432-7.93l-3.965-0.629C733.749,201.445,733.061,203.272,731.977,204.448z
				 M760.009,179.907c-3.227,0-5.893,1.276-7.998,3.828s-3.158,6.335-3.158,11.348c0,4.995,1.062,8.772,3.186,11.334
				c2.123,2.562,4.78,3.842,7.971,3.842c3.244,0,5.915-1.276,8.012-3.828c2.096-2.552,3.145-6.435,3.145-11.648
				c0-4.813-1.066-8.495-3.199-11.047S763.181,179.907,760.009,179.907z M764.999,203.433c-1.358,1.853-2.985,2.779-4.881,2.779
				c-2.023,0-3.719-0.917-5.086-2.752c-1.367-1.834-2.051-4.631-2.051-8.391c0-3.724,0.674-6.507,2.023-8.351
				c1.349-1.843,2.98-2.765,4.895-2.765c2.023,0,3.719,0.917,5.086,2.751c1.367,1.835,2.051,4.623,2.051,8.364
				C767.036,198.793,766.356,201.58,764.999,203.433z M802.235,182.628c-0.664-0.812-1.538-1.468-2.62-1.969
				c-1.083-0.501-2.262-0.752-3.535-0.752c-1.638,0-3.089,0.395-4.354,1.183c-1.265,0.789-2.334,1.98-3.207,3.575v-4.102h-3.637
				v29.039h4.02v-15.877c0-3.503,0.574-5.976,1.723-7.418c1.148-1.441,2.688-2.162,4.621-2.162c1.021,0,1.918,0.269,2.693,0.808
				c0.774,0.538,1.344,1.3,1.709,2.285c0.364,0.985,0.547,2.546,0.547,4.682v17.683h4.02v-17.855c0-2.68-0.164-4.667-0.491-5.961
				C803.396,184.492,802.899,183.439,802.235,182.628z M834.487,194.495c-0.981-0.63-3.142-1.475-6.482-2.535
				c-2.429-0.799-3.89-1.38-4.383-1.742c-0.822-0.617-1.232-1.462-1.232-2.533c0-1.089,0.428-1.983,1.285-2.683
				c0.856-0.698,2.16-1.048,3.91-1.048c3.08,0,4.803,1.586,5.168,4.758l3.938-0.656c-0.273-2.005-0.766-3.546-1.477-4.621
				s-1.736-1.933-3.076-2.57s-2.895-0.957-4.662-0.957c-2.808,0-5.004,0.774-6.59,2.324s-2.379,3.563-2.379,6.043
				c0,1.44,0.291,2.726,0.875,3.855c0.583,1.13,1.403,2.032,2.461,2.707c1.057,0.675,3.153,1.495,6.289,2.461
				c2.169,0.656,3.536,1.203,4.102,1.641c0.82,0.638,1.23,1.531,1.23,2.68c0,1.331-0.478,2.429-1.433,3.295
				s-2.305,1.299-4.051,1.299s-3.146-0.499-4.201-1.497s-1.7-2.522-1.937-4.573l-4.02,0.766c0.911,6.234,4.22,9.352,9.926,9.352
				c3.044,0,5.445-0.858,7.205-2.575c1.759-1.716,2.639-3.962,2.639-6.738c0-1.497-0.272-2.789-0.817-3.875
				C836.23,195.983,835.468,195.125,834.487,194.495z M866.459,196.122c0,3.646-0.529,6.152-1.586,7.52
				c-1.24,1.586-2.826,2.379-4.758,2.379c-1.039,0-1.965-0.306-2.775-0.916c-0.812-0.61-1.367-1.422-1.668-2.434
				s-0.451-3.013-0.451-6.002v-16.105h-4.02v17.992c0,2.68,0.223,4.794,0.67,6.344c0.446,1.55,1.335,2.83,2.666,3.842
				c1.33,1.012,2.935,1.518,4.813,1.518c1.586,0,3.008-0.41,4.266-1.23s2.352-2.051,3.281-3.691v4.266h3.609v-29.039h-4.047V196.122
				z M885.673,209.603h4.02v-40.086h-4.02V209.603z M912.16,205.392c-0.948,0-1.596-0.328-1.941-0.984
				c-0.237-0.456-0.355-1.468-0.355-3.035v-16.98h4.074v-3.828h-4.074v-10.145l-4.02,2.953v7.191h-2.953v3.828h2.953v16.707
				c0,2.88,0.159,4.804,0.479,5.77c0.318,0.966,0.906,1.728,1.764,2.283c0.856,0.556,1.986,0.834,3.391,0.834
				c0.893,0,1.896-0.146,3.008-0.438l-0.547-4.348C913.208,205.328,912.615,205.392,912.16,205.392z M926.698,175.177h4.02v-5.66
				h-4.02V175.177z M926.698,209.603h4.02v-29.039h-4.02V209.603z M963.21,182.628c-0.664-0.812-1.538-1.468-2.62-1.969
				c-1.083-0.501-2.261-0.752-3.535-0.752c-1.638,0-3.089,0.395-4.354,1.183c-1.265,0.789-2.334,1.98-3.207,3.575v-4.102h-3.637
				v29.039h4.02v-15.877c0-3.503,0.574-5.976,1.723-7.418c1.148-1.441,2.688-2.162,4.621-2.162c1.021,0,1.918,0.269,2.693,0.808
				c0.774,0.538,1.344,1.3,1.709,2.285c0.364,0.985,0.547,2.546,0.547,4.682v17.683h4.02v-17.855c0-2.68-0.164-4.667-0.491-5.961
				C964.37,184.492,963.874,183.439,963.21,182.628z M996.024,180.563v3.473c-0.894-1.376-1.919-2.408-3.076-3.097
				c-1.158-0.688-2.438-1.032-3.842-1.032c-1.914,0-3.642,0.547-5.182,1.641c-1.541,1.094-2.785,2.808-3.732,5.141
				c-0.948,2.333-1.422,5.059-1.422,8.176c0,4.648,1.075,8.358,3.227,11.129c1.877,2.406,4.238,3.609,7.082,3.609
				c1.33,0,2.543-0.316,3.637-0.951c1.094-0.633,2.078-1.575,2.953-2.824c0,3.282-0.119,5.433-0.355,6.454
				c-0.383,1.678-1.099,2.939-2.146,3.788c-1.049,0.847-2.457,1.271-4.225,1.271c-1.623,0-2.89-0.381-3.801-1.142
				c-0.912-0.762-1.459-1.921-1.641-3.479l-3.938-0.711c-0.055,2.935,0.747,5.231,2.406,6.891c1.658,1.658,4.028,2.488,7.109,2.488
				c2.333,0,4.329-0.552,5.988-1.654c1.658-1.104,2.853-2.607,3.582-4.512c0.729-1.905,1.094-5.091,1.094-9.557v-25.102H996.024z
				 M994.079,202.979c-1.279,1.718-2.832,2.577-4.658,2.577c-1.827,0-3.37-0.877-4.631-2.632c-1.261-1.754-1.891-4.541-1.891-8.361
				c0-3.508,0.635-6.153,1.904-7.936s2.744-2.673,4.425-2.673c1.882,0,3.48,0.891,4.796,2.673c1.314,1.782,1.973,4.5,1.973,8.155
				C995.997,198.528,995.357,201.261,994.079,202.979z"/>
		</g>
	</g>
</g>
<g id="Landau_Media_1_" style="enable-background:new    ;">
	<g id="Landau_Media">
		<g>
			<path style="fill-rule:evenodd;clip-rule:evenodd;fill:#E50915;" d="M179.097,36.692h-23.145V142h57.09v-19.75h-33.945V36.692z
				 M280.701,93.628c0-7.766-0.579-13.501-1.736-17.204s-3.947-6.955-8.37-9.76c-4.424-2.802-10.287-4.204-17.59-4.204
				c-8.641,0-15.804,2.109-21.486,6.326c-5.684,4.218-9.014,10.235-9.99,18.053l20.599,2.006c0.563-7.972,3.609-11.958,9.139-11.958
				c3.021,0,5.056,1.003,6.105,3.009c1.049,2.006,1.574,5.606,1.574,10.801v2.932c-15.196,0.926-25.668,3.769-31.416,8.524
				c-5.75,4.759-8.624,11.483-8.624,20.175c0,6.943,1.898,12.228,5.698,15.854c3.8,3.625,8.728,5.438,14.786,5.438
				c9.445,0,16.556-4.525,21.33-13.578c0,5.863,0.36,9.85,1.084,11.958h20.209c-0.875-1.852-1.312-7.611-1.312-17.281V93.628z
				 M258.945,108.66c0,7.896-1.068,13.317-3.202,16.266c-2.135,2.949-4.513,4.422-7.136,4.422c-4.835,0-7.252-3.281-7.252-9.844
				c0-4.922,1.35-8.421,4.05-10.498c2.7-2.076,7.214-3.473,13.54-4.191V108.66z M349.401,65.971
				c-3.317-2.288-7.521-3.434-12.613-3.434c-9.412,0-15.919,4.063-19.519,12.189V64.08h-20.599V142h21.756V96.328
				c0-6.531,0.617-10.994,1.852-13.385c1.234-2.393,3.806-3.588,7.715-3.588c2.263,0,4.063,0.617,5.4,1.852
				c1.337,1.234,2.006,4.475,2.006,9.721V142h21.756V90.928c0-7.252-0.463-12.652-1.389-16.201S352.719,68.26,349.401,65.971z
				 M410.156,71.332C407.07,65.777,401.901,63,394.649,63c-7.869,0-14.157,3.344-18.863,10.029
				c-4.706,6.687-7.059,16.793-7.059,30.319c0,11.881,2.053,21.474,6.16,28.776c4.106,7.304,10.345,10.955,18.714,10.955
				c8.521,0,14.426-4.654,17.712-13.964V142h20.213V36.692h-21.37V71.332z M410.156,110.473c0,7.088-0.917,11.773-2.751,14.06
				c-1.833,2.285-4.145,3.427-6.933,3.427c-3.305,0-5.68-1.693-7.126-5.083c-1.447-3.39-2.169-9.296-2.169-17.718
				c0-11.298,0.658-18.745,1.975-22.34s3.809-5.392,7.477-5.392c3.098,0,5.46,1.297,7.088,3.89
				c1.626,2.595,2.439,7.717,2.439,15.368V110.473z M506.823,93.628c0-7.766-0.579-13.501-1.736-17.204s-3.947-6.955-8.37-9.76
				c-4.424-2.802-10.287-4.204-17.59-4.204c-8.641,0-15.804,2.109-21.486,6.326c-5.684,4.218-9.014,10.235-9.99,18.053l20.599,2.006
				c0.563-7.972,3.609-11.958,9.139-11.958c3.021,0,5.056,1.003,6.105,3.009c1.049,2.006,1.574,5.606,1.574,10.801v2.932
				c-15.196,0.926-25.668,3.769-31.416,8.524c-5.75,4.759-8.624,11.483-8.624,20.175c0,6.943,1.898,12.228,5.698,15.854
				c3.8,3.625,8.728,5.438,14.786,5.438c9.445,0,16.556-4.525,21.33-13.578c0,5.863,0.36,9.85,1.084,11.958h20.209
				c-0.875-1.852-1.312-7.611-1.312-17.281V93.628z M485.067,108.66c0,7.896-1.068,13.317-3.202,16.266
				c-2.135,2.949-4.513,4.422-7.136,4.422c-4.835,0-7.252-3.281-7.252-9.844c0-4.922,1.35-8.421,4.05-10.498
				c2.701-2.076,7.214-3.473,13.54-4.191V108.66z M560.441,103.861c0,7.62-0.154,12.654-0.463,15.101s-1.195,4.364-2.662,5.755
				c-1.465,1.391-3.613,2.085-6.441,2.085c-3.086,0-5.092-0.849-6.018-2.548c-0.926-1.7-1.389-5.073-1.389-10.12V64.08h-21.756
				v50.687c0,7.51,0.437,13.038,1.312,16.587c0.874,3.549,2.803,6.48,5.786,8.795c2.982,2.314,7.277,3.472,12.884,3.472
				c4.166,0,7.778-0.721,10.839-2.16c3.06-1.439,6.134-4.809,9.22-10.106V142h20.444V64.08h-21.756V103.861z M678.401,101.729
				l-14.89-65.036h-33.945V142h18.824V53.819L668.063,142h16.818l21.524-88.181V142h21.679V36.692h-32.942L678.401,101.729z
				 M806.005,106.666c0-16.818-2.967-28.377-8.899-34.678c-5.934-6.3-13.318-9.451-22.154-9.451
				c-9.813,0-17.633,3.563-23.463,10.686c-5.83,7.124-8.745,17.448-8.745,30.975c0,11.984,2.747,21.551,8.244,28.699
				c5.497,7.149,13.536,10.724,24.118,10.724c17.157,0,27.457-9.052,30.899-27.156l-19.364-1.234
				c-0.819,8.847-4.536,13.27-11.146,13.27c-3.075,0-5.561-1.178-7.457-3.535c-1.896-2.358-2.844-7.022-2.844-13.993v-4.305H806.005
				z M775.416,76.887c6.762,0,10.145,5.015,10.145,15.044c0,0.515-0.026,1.234-0.077,2.16h-20.136
				C765.398,82.622,768.754,76.887,775.416,76.887z M856.846,71.332C853.76,65.777,848.591,63,841.339,63
				c-7.869,0-14.157,3.344-18.862,10.029c-4.707,6.687-7.06,16.793-7.06,30.319c0,11.881,2.053,21.474,6.16,28.776
				c4.106,7.304,10.345,10.955,18.714,10.955c8.521,0,14.426-4.654,17.712-13.964V142h20.213V36.692h-21.37V71.332z
				 M856.846,110.473c0,7.088-0.917,11.773-2.751,14.06c-1.833,2.285-4.145,3.427-6.933,3.427c-3.305,0-5.68-1.693-7.126-5.083
				c-1.447-3.39-2.169-9.296-2.169-17.718c0-11.298,0.658-18.745,1.975-22.34s3.809-5.392,7.476-5.392
				c3.099,0,5.461,1.297,7.089,3.89c1.626,2.595,2.439,7.717,2.439,15.368V110.473z M894.031,142h21.756V64.08h-21.756V142z
				 M893.877,57.677h22.064V36.152h-22.064V57.677z M991.161,124.719V93.628c0-7.766-0.579-13.501-1.735-17.204
				c-1.158-3.703-3.948-6.955-8.371-9.76c-4.424-2.802-10.287-4.204-17.59-4.204c-8.641,0-15.804,2.109-21.486,6.326
				c-5.684,4.218-9.014,10.235-9.99,18.053l20.599,2.006c0.563-7.972,3.609-11.958,9.139-11.958c3.021,0,5.056,1.003,6.105,3.009
				c1.049,2.006,1.574,5.606,1.574,10.801v2.932c-15.196,0.926-25.668,3.769-31.416,8.524c-5.75,4.759-8.624,11.483-8.624,20.175
				c0,6.943,1.898,12.228,5.698,15.854c3.8,3.625,8.728,5.438,14.786,5.438c9.445,0,16.556-4.525,21.33-13.578
				c0,5.863,0.36,9.85,1.084,11.958h20.209C991.598,140.148,991.161,134.389,991.161,124.719z M969.405,108.66
				c0,7.896-1.068,13.317-3.202,16.266c-2.135,2.949-4.513,4.422-7.136,4.422c-4.835,0-7.252-3.281-7.252-9.844
				c0-4.922,1.351-8.421,4.05-10.498c2.701-2.076,7.214-3.473,13.54-4.191V108.66z"/>
		</g>
	</g>
</g>
<g id="_x3C__1_" style="enable-background:new    ;">
	<g id="_x3C_">
		<g>
			<path style="fill-rule:evenodd;clip-rule:evenodd;fill:#0B0B0B;" d="M63.362,112.233l60.001,31.522l-0.068-20.438L85.221,103.62
				l38.143-19.613V63.462L63.362,94.917V112.233z M1026.362,63.462v20.545l38.142,19.613l-38.073,19.697l-0.068,20.438
				l60.001-31.522V94.917L1026.362,63.462z"/>
		</g>
	</g>
</g>
</svg>
